<mxfile host="app.diagrams.net" modified="2024-03-27T22:12:31.830Z" agent="Mozilla/5.0 (Windows NT 10.0; Win64; x64) AppleWebKit/537.36 (KHTML, like Gecko) Chrome/123.0.0.0 Safari/537.36" version="24.2.0" etag="1bOK_xK7Efisd3hF3s-T" type="github">
  <diagram name="PÃ¡gina-1" id="x3hD0sefwGq5JmJmCAwR">
    <mxGraphModel>
      <root>
        <mxCell id="0" />
        <mxCell id="1" parent="0" />
      </root>
    </mxGraphModel>
  </diagram>
</mxfile>
